<?xml version="1.0" encoding="utf-8"?>
<!-- Generator: Adobe Illustrator 23.0.3, SVG Export Plug-In . SVG Version: 6.00 Build 0)  -->
<svg version="1.1" id="Layer_1" xmlns="http://www.w3.org/2000/svg" xmlns:xlink="http://www.w3.org/1999/xlink" x="0px" y="0px"
	 viewBox="0 0 500 500" style="enable-background:new 0 0 500 500;" xml:space="preserve">
<style type="text/css">
	.st0{fill:#1A315D;}
	.st1{fill:#FD0E67;}
	.st2{fill:#E6FB04;}
	.st3{fill:#A7FF42;}
	.st4{fill:#00CEC0;}
	.st5{clip-path:url(#SVGID_2_);fill:#143158;}
	.st6{fill:#143158;}
	.st7{clip-path:url(#SVGID_4_);fill:#143158;}
	.st8{clip-path:url(#SVGID_6_);fill:#143158;}
	.st9{clip-path:url(#SVGID_8_);fill:#143158;}
	.st10{clip-path:url(#SVGID_8_);fill:#00CEC0;}
	.st11{clip-path:url(#SVGID_10_);fill:#143158;}
	.st12{clip-path:url(#SVGID_12_);fill:#143158;}
	.st13{clip-path:url(#SVGID_14_);fill:#143158;}
	.st14{clip-path:url(#SVGID_16_);fill:#143158;}
	.st15{clip-path:url(#SVGID_16_);fill:#00CEC0;}
	.st16{clip-path:url(#SVGID_18_);fill:#143158;}
	.st17{clip-path:url(#SVGID_20_);fill:#143158;}
	.st18{clip-path:url(#SVGID_22_);fill:#143158;}
	.st19{clip-path:url(#SVGID_24_);fill:#143158;}
	.st20{clip-path:url(#SVGID_24_);fill:#E6FB04;}
	.st21{clip-path:url(#SVGID_26_);fill:#143158;}
	.st22{clip-path:url(#SVGID_28_);fill:#143158;}
	.st23{clip-path:url(#SVGID_30_);fill:#143158;}
	.st24{clip-path:url(#SVGID_32_);fill:#143158;}
	.st25{clip-path:url(#SVGID_32_);fill:#A7FF42;}
</style>
<g>
	<path class="st0" d="M250,37.5C132.64,37.5,37.5,132.64,37.5,250S132.64,462.5,250,462.5S462.5,367.36,462.5,250
		S367.36,37.5,250,37.5z"/>
</g>
<path class="st1" d="M191.92,154.14v186.52c0,22.39-15.6,27.39-27.09,27.39H99.59v-2.23h-0.37V172.88h37.3v158.87h2.96
	c5.42,0,9.1-2.61,9.1-8.04V171.1c0-5.43-3.68-8.04-9.1-8.04H99.59v-36.3h65.24C176.1,126.75,191.92,131.75,191.92,154.14z"/>
<path class="st1" d="M247.4,323.71c0,5.43,3.68,8.04,9.1,8.04h39.88v36.31h-65.24c-11.49,0-27.09-5-27.09-27.39V154.14
	c0-22.39,15.82-27.39,27.09-27.39h65.24v36.3H256.5c-0.47,0-0.92,0.02-1.36,0.06c-4.67,0.41-7.74,3.02-7.74,7.99V323.71z"/>
<path class="st1" d="M352.07,170.69c0,0,0,15.75,0,22.91c0,8.4,2.89,13.22,14.02,13.22c3.79,0,7.75,0,7.75,0
	c11.21,0,26.95,4.95,26.95,27.14v106.95c0,22.19-15.52,27.14-26.95,27.14h-64.89v-36.3h39.68c5.38,0,9.04-2.26,9.04-7.64v-73.36
	c0-4.13-2.16-6.62-5.6-7.55c-1.04-0.28-2.2-0.42-3.45-0.42c0,0-16.66,0-25.32,0c-5.44,0-14.34-0.01-14.34-15.58v-64.1
	c0-5.64,0-9.22,0-9.22c0-22.19,15.74-27.14,26.95-27.14h64.89v35.97h-39.67C355.73,162.72,352.07,165.31,352.07,170.69z"/>
<circle class="st4" cx="198.66" cy="186.15" r="23.02"/>
<circle class="st4" cx="304.12" cy="350.23" r="23.02"/>
</svg>
